<svg width="60" height="48" viewBox="0 0 60 48" fill="none" xmlns="http://www.w3.org/2000/svg">
<g clip-path="url(#clip0_36_281)">
<path d="M45 18C46.2469 18 47.25 19.0031 47.25 20.25V27.75C47.25 28.9969 46.2469 30 45 30C43.7531 30 42.75 28.9969 42.75 27.75V20.25C42.75 19.0031 43.7531 18 45 18ZM60 6V42C60 45.3094 57.3094 48 54 48H36C32.6906 48 30 45.3094 30 42V6C30 2.68594 32.6906 0 36 0H54C57.3094 0 60 2.68594 60 6ZM54 4.5H47.25V9.75C47.25 10.9969 46.2469 12 45 12C43.7531 12 42.75 10.9969 42.75 9.75V4.5H36C35.175 4.5 34.5 5.17125 34.5 6V42C34.5 42.825 35.175 43.5 36 43.5H42.75V38.25C42.75 37.0031 43.7531 36 45 36C46.2469 36 47.25 37.0031 47.25 38.25V43.5H54C54.825 43.5 55.5 42.825 55.5 42V6C55.5 5.17125 54.825 4.5 54 4.5ZM2.25 9H27V13.5H23.25V19.5H27V24H2.25C1.00781 24 0 22.9969 0 21.75C0 20.5031 1.00781 19.5 2.25 19.5H6.75V13.5H2.25C1.00781 13.5 0 12.4969 0 11.25C0 10.0031 1.00781 9 2.25 9ZM18.75 13.5H11.25V19.5H18.75V13.5ZM25.5 28.5H27V33H25.5C22.6031 33 20.25 35.3531 20.25 38.25V44.25C20.25 46.3219 18.5719 48 16.5 48H10.5C8.42906 48 6.75 46.3219 6.75 44.25V37.5C6.75 35.0156 4.73531 33 2.25 33C1.00781 33 0 31.9969 0 30.75C0 29.5031 1.00781 28.5 2.25 28.5C7.22062 28.5 11.25 32.4469 11.25 37.5V43.5H15.75V38.25C15.75 32.8688 20.1187 28.5 25.5 28.5Z" fill="#FFCC00"/>
</g>
<defs>
<clipPath id="clip0_36_281">
<rect width="60" height="48" fill="white"/>
</clipPath>
</defs>
</svg>
