<svg width="55" height="48" viewBox="0 0 55 48" fill="none" xmlns="http://www.w3.org/2000/svg">
<g clip-path="url(#clip0_36_294)">
<path d="M9.15768 30.3281L37.6699 1.81126C40.0136 -0.532302 43.8199 -0.532302 46.1636 1.81126L49.8574 5.50782C50.148 5.80032 50.4011 6.11626 50.6261 6.44907C52.1636 8.77782 51.9105 11.9438 49.8574 13.9969L21.3386 42.5063C21.2167 42.6281 21.0949 42.6656 20.9636 42.8625C20.0636 43.6594 18.9949 44.1656 17.8324 44.5875L6.55143 47.9063C5.76205 48.1406 4.90799 47.925 4.3258 47.2594C3.74362 46.7625 3.52612 45.9094 3.75862 45.1125L7.07643 33.8344C7.46643 32.5125 8.18174 31.3031 9.15768 30.3281ZM11.3917 35.1L9.23924 42.4313L16.5667 40.275C17.0824 40.0969 17.7105 39.7688 18.1605 39.3281L39.573 17.9063L33.6761 12.0094L12.3386 33.5063C12.2824 33.5625 12.2261 33.6188 12.1792 33.6844C11.8136 34.0875 11.5511 34.575 11.3917 35.1ZM30.8355 38.3156C31.548 41.2875 34.2199 43.5 37.4074 43.5H45.4324L45.3667 43.4156C44.2792 41.8313 43.773 39.7969 44.0824 37.7906C44.1292 37.4531 44.1574 37.1063 44.1574 36.75C44.1574 33.4781 41.9449 30.8906 38.973 30.1781L42.4605 26.6906C46.0511 28.5469 48.6574 32.3531 48.6574 36.75C48.6574 37.3313 48.6105 37.9125 48.5261 38.475C48.273 40.1438 49.398 42 51.0949 42H51.6574C53.3167 42 54.6574 43.3406 54.6574 45C54.6574 46.6594 53.3167 48 51.6574 48H37.4074C33.0105 48 29.2042 45.4781 27.348 41.8031L30.8355 38.3156ZM13.4167 2.25001L22.6699 11.5031L19.4917 14.6906L10.2386 5.43189C9.09299 4.29001 7.24049 4.29001 6.09862 5.43189C4.95674 6.57376 4.95674 8.42626 6.09862 9.57188L15.3574 18.825L12.1699 22.0031L2.91674 12.75C0.0173359 9.85314 0.0173359 5.1497 2.91674 2.25001C5.81643 -0.649396 10.5199 -0.649396 13.4167 2.25001Z" fill="#FFCC00"/>
</g>
<defs>
<clipPath id="clip0_36_294">
<rect width="54" height="48" fill="white" transform="translate(0.666504)"/>
</clipPath>
</defs>
</svg>
