<svg width="54" height="48" viewBox="0 0 54 48" fill="none" xmlns="http://www.w3.org/2000/svg">
<path d="M53.728 35.325C53.1749 33.9187 51.853 33 50.3811 33H51.0054V28.5C51.0054 17.8687 44.0829 8.87812 34.5054 5.72812V5.21269C34.4999 3.16406 32.8405 1.5 30.7874 1.5H23.2124C21.1677 1.5 19.5027 3.16406 19.5027 5.20875V5.72419C9.9186 8.87531 2.99892 17.8687 2.99892 28.5V33H3.62339C2.14495 33 0.82776 33.9141 0.26901 35.3259C-0.255427 36.6497 0.0023855 38.1937 0.919448 39.2484C1.55798 39.9937 7.71923 46.5 26.9999 46.5C46.2805 46.5 52.4436 39.99 53.0717 39.2578C53.9155 38.1937 54.253 36.6469 53.728 35.325ZM7.49798 28.5C7.49798 20.415 12.4714 13.5188 19.498 10.575V27.75C19.498 28.9922 20.5058 30 21.748 30C22.9902 30 23.998 28.9922 23.998 27.75V6H29.9989V27.75C29.9989 28.9922 31.0067 30 32.2489 30C33.4911 30 34.4989 28.9922 34.4989 27.75V10.575C41.4467 13.5188 46.4999 20.4188 46.4999 28.5V33H7.49798V28.5ZM26.9999 42C14.6999 42 8.47485 39.1697 5.8686 37.5H48.1311C45.5249 39.1688 39.2999 42 26.9999 42Z" fill="#FFCC00"/>
</svg>
