<svg width="49" height="48" viewBox="0 0 49 48" fill="none" xmlns="http://www.w3.org/2000/svg">
<g clip-path="url(#clip0_36_307)">
<path d="M20.7518 1.4025C21.0893 0.554438 21.9143 0 22.833 0H25.833C26.7518 0 27.5768 0.554438 27.9143 1.4025L45.0424 43.5H46.083C47.3299 43.5 48.333 44.5031 48.333 45.75C48.333 46.9969 47.3299 48 46.083 48H2.58301C1.34082 48 0.333008 46.9969 0.333008 45.75C0.333008 44.5031 1.34082 43.5 2.58301 43.5H3.62457L20.7518 1.4025ZM12.0611 34.5L8.4827 43.5H40.1861L36.5205 34.5H12.0611ZM34.6924 30L30.4174 19.5H18.2486L13.9736 30H34.6924ZM20.0768 15H28.5893L24.2486 4.53375L20.0768 15Z" fill="#FFCC00"/>
</g>
<defs>
<clipPath id="clip0_36_307">
<rect width="48" height="48" fill="white" transform="translate(0.333008)"/>
</clipPath>
</defs>
</svg>
