<svg width="55" height="48" viewBox="0 0 55 48" fill="none" xmlns="http://www.w3.org/2000/svg">
<g clip-path="url(#clip0_36_299)">
<path d="M52.4765 37.5188C50.5181 37.1689 48.554 36.0638 46.9453 34.4044C46.0986 33.5314 44.5659 33.5314 43.7193 34.4044C41.8265 36.3656 39.1265 37.4813 36.3328 37.4813C33.539 37.4813 30.8428 36.3581 28.9453 34.4016C28.0986 33.5286 26.5659 33.5286 25.7193 34.4016C23.8265 36.3656 21.1265 37.4813 18.3328 37.4813C15.299 37.4813 11.954 36.2138 10.1962 34.4016C9.34955 33.5286 7.81683 33.5286 6.97027 34.4016C5.17589 36.2541 4.00214 37.1935 2.18902 37.516C0.965578 37.7335 0.149953 38.9063 0.368391 40.1335C0.585141 41.3597 1.74277 42.18 2.97745 41.9606C5.43277 41.5226 7.17089 40.3894 8.6962 39.0131C11.3212 40.8638 14.8884 41.9953 18.3337 41.9953C21.6046 41.9953 24.78 40.9135 27.329 38.9775C32.4206 42.8447 40.2103 42.8503 45.3103 38.9923C47.2425 40.527 49.4503 41.562 51.6853 41.9595C51.8186 41.9832 51.9519 41.9949 52.0822 41.9949C53.1519 41.9949 54.1006 41.2262 54.2938 40.1321C54.4359 38.9063 53.6953 37.7344 52.4765 37.5188ZM52.4765 24.0188C50.5181 23.6689 48.554 22.5638 46.9453 20.9044C46.0986 20.0314 44.5659 20.0314 43.7193 20.9044C41.8265 22.8656 39.1265 23.9813 36.3328 23.9813C33.539 23.9813 30.8428 22.8581 28.9453 20.9016C28.0986 20.0286 26.5659 20.0286 25.7193 20.9016C23.8265 22.8656 21.1265 23.9813 18.3328 23.9813C15.299 23.9813 11.954 22.7138 10.1962 20.9016C9.34955 20.0286 7.81683 20.0286 6.97027 20.9016C5.17589 22.7541 4.00214 23.6935 2.18902 24.016C0.965578 24.2335 0.149953 25.4063 0.368391 26.6335C0.585141 27.8597 1.74277 28.68 2.97745 28.4606C5.43277 28.0226 7.17089 26.8894 8.6962 25.5131C11.3212 27.3638 14.8837 28.4841 18.3337 28.4841C21.6046 28.4841 24.7846 27.4135 27.3328 25.4775C32.4243 29.3447 40.214 29.3503 45.314 25.4923C47.2462 27.027 49.454 28.062 51.689 28.4595C51.8223 28.4832 51.9556 28.4949 52.086 28.4949C53.1556 28.4949 54.1044 27.7262 54.2975 26.6321C54.4359 25.4063 53.6953 24.2344 52.4765 24.0188ZM2.97745 14.9625C5.43277 14.5245 7.17089 13.3913 8.6962 12.015C11.3212 13.8656 14.8837 14.986 18.3337 14.986C21.6046 14.986 24.7846 13.9153 27.3328 11.9794C32.4243 15.8466 40.214 15.8522 45.314 11.9942C47.2462 13.5289 49.454 14.5639 51.689 14.9614C51.8223 14.985 51.9556 14.9968 52.086 14.9968C53.1556 14.9968 54.1044 14.2281 54.2975 13.1339C54.5158 11.9068 53.6999 10.7339 52.4769 10.5164C50.5185 10.1666 48.5544 9.06144 46.9456 7.40206C46.099 6.52906 44.5663 6.52906 43.7197 7.40206C41.8231 9.35863 39.1372 10.4902 36.3397 10.4902C33.5422 10.4902 30.8422 9.35863 28.9456 7.40206C28.099 6.52906 26.5663 6.52906 25.7197 7.40206C23.8265 9.36095 21.1359 10.4906 18.3421 10.4906C15.3084 10.4906 11.9559 9.2147 10.1981 7.40251C9.35142 6.52951 7.8187 6.52951 6.97214 7.40251C5.17777 9.25501 4.00402 10.1944 2.19089 10.5169C0.967453 10.7344 0.151828 11.9072 0.370266 13.1344C0.58486 14.3625 1.74183 15.1031 2.97745 14.9625Z" fill="#FFCC00"/>
</g>
<defs>
<clipPath id="clip0_36_299">
<rect width="54" height="48" fill="white" transform="translate(0.333008)"/>
</clipPath>
</defs>
</svg>
