<svg width="55" height="48" viewBox="0 0 55 48" fill="none" xmlns="http://www.w3.org/2000/svg">
<g clip-path="url(#clip0_36_315)">
<path d="M35.1665 31.5H32.1665C31.3345 31.5 30.6665 32.168 30.6665 33V36C30.6665 36.832 31.3345 37.5 32.1665 37.5H35.1665C35.9985 37.5 36.6665 36.832 36.6665 36V33C36.6665 32.1656 36.0009 31.5 35.1665 31.5ZM30.6665 24V27C30.6665 27.832 31.3345 28.5 32.1665 28.5H35.1665C36.0009 28.5 36.6665 27.8344 36.6665 27V24C36.6665 23.168 35.9985 22.5 35.1665 22.5H32.1665C31.3321 22.5 30.6665 23.1656 30.6665 24ZM41.1665 37.5H44.1665C44.9985 37.5 45.6665 36.832 45.6665 36V33C45.6665 32.168 44.9985 31.5 44.1665 31.5H41.1665C40.3345 31.5 39.6665 32.168 39.6665 33V36C39.6665 36.8344 40.3321 37.5 41.1665 37.5ZM41.1665 28.5H44.1665C45.0009 28.5 45.6665 27.8344 45.6665 27V24C45.6665 23.168 44.9985 22.5 44.1665 22.5H41.1665C40.3321 22.5 39.6665 23.1656 39.6665 24V27C39.6665 27.8344 40.3321 28.5 41.1665 28.5ZM48.6665 3H25.8853C25.2759 1.25437 23.6259 0 21.6665 0H14.1665C12.2071 0 10.5571 1.25437 9.94775 3H6.6665C3.34963 3 0.666504 5.68313 0.666504 9V42C0.666504 45.3169 3.34963 48 6.6665 48H48.6665C51.9834 48 54.6665 45.3169 54.6665 42V9C54.6665 5.68313 51.9853 3 48.6665 3ZM14.1665 4.5H21.6665V34.5H14.1665V4.5ZM50.1665 42C50.1665 42.832 49.4985 43.5 48.6665 43.5H6.6665C5.83447 43.5 5.1665 42.832 5.1665 42V9C5.1665 8.16797 5.83447 7.5 6.6665 7.5H9.6665V34.5C9.6665 36.9844 11.6821 39 14.1665 39H21.6665C24.1509 39 26.1665 36.9844 26.1665 34.5V7.5H30.6665V14.25C30.6665 16.3125 32.2696 18 34.4165 18H50.1665V42ZM50.1665 13.5H35.1665V7.5H48.6665C49.4985 7.5 50.1665 8.16797 50.1665 9V13.5Z" fill="#FFCC00"/>
</g>
<defs>
<clipPath id="clip0_36_315">
<rect width="54" height="48" fill="white" transform="translate(0.666504)"/>
</clipPath>
</defs>
</svg>
